<svg xmlns="http://www.w3.org/2000/svg" width="18" height="18" viewBox="0 0 18 18">
  <path id="Path_4446" data-name="Path 4446" d="M33.653,20a4.316,4.316,0,0,0-3.072,1.272L21.23,30.623A4.173,4.173,0,0,0,20,33.593V38h4.407a4.173,4.173,0,0,0,2.97-1.23l9.351-9.351A4.347,4.347,0,0,0,33.653,20ZM26.1,35.5a2.4,2.4,0,0,1-1.7.7H21.8V33.593a2.4,2.4,0,0,1,.7-1.7l7.062-7.059,3.6,3.6Zm9.351-9.351-1.017,1.017-3.6-3.6,1.017-1.017a2.547,2.547,0,0,1,3.72,3.48Q35.515,26.089,35.453,26.147Z" transform="translate(-20 -20)"/>
</svg>
